<svg width="189" height="47" viewBox="0 0 189 47" fill="none" xmlns="http://www.w3.org/2000/svg">
<path d="M78.8975 8.82954H84.6378L88.8862 23.1369L92.9828 8.82954H98.9001L91.5919 29.7933H86.0792L78.8975 8.82954Z" fill="white"/>
<path d="M106.815 8.82953H101.479V29.7933H106.815V8.82953Z" fill="white"/>
<path d="M104.944 2.63222H101.479V6.99329H106.815V4.54497C106.84 3.49933 105.981 2.63222 104.944 2.63222Z" fill="white"/>
<path d="M135.972 8.82954H130.636V29.7933H135.972V8.82954Z" fill="white"/>
<path d="M134.1 2.63222H130.636V6.99329H135.972V4.54497C135.997 3.49933 135.137 2.63222 134.1 2.63222Z" fill="white"/>
<path d="M127.273 15.3839C127.273 15.3839 127.222 11.5329 123.808 9.39061C122.544 8.60001 120.976 7.93692 118.523 7.93692C109.521 7.93692 110.229 15.5114 110.229 15.5114C110.229 15.5114 110.204 18.4443 112.985 19.949C115.767 21.4537 118.624 21.7597 119.459 21.8873C120.293 22.0148 122.266 22.2698 122.266 23.9785C122.266 25.6618 120.774 26.1208 119.231 26.1208C117.663 26.1208 116.02 25.5852 115.312 24.055C114.882 23.1114 114.932 22.7799 114.932 22.7799H109.824C109.824 22.7799 108.712 30.3799 118.7 30.3799C128.689 30.3799 128.057 23.4685 128.057 23.4685C128.057 23.4685 128.664 18.4953 122.089 17.2201C120.369 16.8886 118.928 16.6846 117.967 16.353C115.615 15.5879 115.59 14.8483 115.59 14.3638C115.59 13.6752 116.374 12.5785 118.624 12.5785C120.875 12.5785 121.684 13.8537 121.962 14.2107C121.962 14.2107 121.962 14.2362 121.988 14.2362C122.468 14.9248 123.201 15.3584 124.036 15.3839H127.273Z" fill="white"/>
<path d="M32.1659 8.42148C26.2992 8.42148 21.5451 13.2161 21.5451 19.1329C21.5451 25.0497 26.2992 29.8443 32.1659 29.8443C38.0326 29.8443 42.7867 25.0497 42.7867 19.1329C42.7867 13.2161 38.0326 8.42148 32.1659 8.42148ZM32.1659 24.4631C29.2578 24.4631 26.8808 22.0658 26.8808 19.1329C26.8808 16.2 29.2578 13.8027 32.1659 13.8027C35.074 13.8027 37.451 16.2 37.451 19.1329C37.451 22.0658 35.0993 24.4631 32.1659 24.4631Z" fill="white"/>
<path d="M149.779 8.42148C143.912 8.42148 139.158 13.2161 139.158 19.1329C139.158 25.0497 143.912 29.8443 149.779 29.8443C155.646 29.8443 160.4 25.0497 160.4 19.1329C160.374 13.2161 155.646 8.42148 149.779 8.42148ZM149.779 24.4631C146.871 24.4631 144.494 22.0658 144.494 19.1329C144.494 16.2 146.871 13.8027 149.779 13.8027C152.687 13.8027 155.064 16.2 155.064 19.1329C155.064 22.0658 152.687 24.4631 149.779 24.4631Z" fill="white"/>
<path d="M147.25 24.7436C148.633 24.7436 149.754 23.6132 149.754 22.2188C149.754 20.8244 148.633 19.694 147.25 19.694C145.867 19.694 144.747 20.8244 144.747 22.2188C144.747 23.6132 145.867 24.7436 147.25 24.7436Z" fill="white"/>
<path d="M141.08 9.05907C143.406 7.0188 146.441 5.76914 149.779 5.76914C157.087 5.76914 163.004 11.7369 163.004 19.1074C163.004 22.9584 161.386 26.4269 158.807 28.8497L161.993 32.3946C165.533 29.0792 167.758 24.3611 167.758 19.1074C167.758 9.08457 159.717 0.974503 149.779 0.974503C145.227 0.974503 141.08 2.68323 137.919 5.4886L141.08 9.05907Z" fill="#D2A95F"/>
<path d="M180.427 8.16644H179.315C174.662 8.16644 170.894 11.9664 170.894 16.6591V29.6403C170.894 29.7423 170.97 29.7933 171.046 29.7933H176.381V16.353C176.381 14.3383 178 12.706 179.998 12.706C181.995 12.706 183.614 14.3383 183.614 16.353V27.702C183.614 28.8497 184.549 29.7933 185.687 29.7933H188.975V16.8121C189 12.043 185.156 8.16644 180.427 8.16644Z" fill="white"/>
<path d="M67.4928 7.98793C65.0399 7.98793 62.8145 8.90605 61.1203 10.4363C59.5777 8.90605 57.4789 7.98793 55.1524 7.98793H54.9754C49.7914 7.98793 45.5937 12.2215 45.5937 17.4497V29.6403C45.5937 29.7423 45.6695 29.7933 45.7454 29.7933H51.1822V16.1745C51.1822 14.2618 52.7248 12.7316 54.5961 12.7316C56.4926 12.7316 58.0099 14.2873 58.0099 16.1745V29.8188H58.0605H63.5985V16.3275C63.5985 14.3383 65.2169 12.7061 67.1893 12.7061C69.1617 12.7061 70.7802 14.3383 70.7802 16.3275V27.8806C70.7802 28.9517 71.6399 29.7933 72.6767 29.7933H75.9894V16.5826C76.04 11.8389 72.2216 7.98793 67.4928 7.98793Z" fill="white"/>
<path d="M13.6048 23.0859C13.1243 24.5396 11.6323 25.5342 10.0139 25.5342C7.63687 25.5342 5.71501 23.596 5.71501 21.1987V20.5356V20.2295V16.9651C5.71501 14.7718 7.48515 12.9866 9.65989 12.9866C11.1519 12.9866 12.4162 13.9302 12.8714 15.2819H18.5611C17.6255 11.0993 13.9335 7.98793 9.50816 7.98793C4.27361 7.98793 0 12.2725 0 17.5772V20.6376C0 26.0443 4.34948 30.4054 9.68517 30.4054H10.1151C14.4393 30.4054 18.0048 27.243 18.6876 23.0604H13.6048V23.0859Z" fill="white"/>
<path d="M167.546 35.3326H166.15V36.3881V37.0917V46.2392H168.287V37.0917V36.3881V36.0802C168.287 35.6844 167.982 35.3326 167.546 35.3326Z" fill="#D2A95F"/>
<path d="M171.994 37.8393H169.858V46.2392H171.994V37.8393Z" fill="#D2A95F"/>
<path d="M171.209 35.3326H169.813V37.0917H171.95V36.1242C171.994 35.6844 171.645 35.3326 171.209 35.3326Z" fill="#D2A95F"/>
<path d="M117.878 37.8393H115.741V46.2392H117.878V37.8393Z" fill="#D2A95F"/>
<path d="M117.137 35.3326H115.741V37.0917H117.878V36.1242C117.922 35.6844 117.573 35.3326 117.137 35.3326Z" fill="#D2A95F"/>
<path d="M143.344 40.522C143.344 40.522 143.344 38.9828 141.949 38.1032C141.425 37.7953 140.815 37.5315 139.812 37.5315C136.193 37.5315 136.498 40.566 136.498 40.566C136.498 40.566 136.498 41.7534 137.588 42.3251C138.722 42.9408 139.856 43.0288 140.204 43.1167C140.553 43.1607 141.338 43.2926 141.338 43.9523C141.338 44.612 140.728 44.7879 140.117 44.7879C139.507 44.7879 138.809 44.568 138.547 43.9523C138.373 43.5565 138.373 43.4246 138.373 43.4246H136.324C136.324 43.4246 135.887 46.4591 139.899 46.4591C143.911 46.4591 143.649 43.6884 143.649 43.6884C143.649 43.6884 143.911 41.7094 141.251 41.1817C140.553 41.0497 139.986 40.9618 139.594 40.8298C138.635 40.522 138.635 40.2141 138.635 40.0382C138.635 39.7744 138.94 39.3346 139.856 39.3346C140.771 39.3346 141.077 39.8623 141.207 39.9943C141.382 40.2581 141.687 40.434 142.036 40.434L143.344 40.522Z" fill="#D2A95F"/>
<path d="M161.397 37.5755H160.961C159.086 37.5755 157.603 39.1147 157.603 40.9618V46.1513C157.603 46.1952 157.647 46.1952 157.647 46.1952H159.784V40.8299C159.784 40.0383 160.438 39.3786 161.223 39.3786C162.008 39.3786 162.662 40.0383 162.662 40.8299V45.3596C162.662 45.8434 163.054 46.1952 163.49 46.1952H164.799V41.0058C164.799 39.1147 163.272 37.5755 161.397 37.5755Z" fill="#D2A95F"/>
<path d="M177.096 37.5755H176.659C174.784 37.5755 173.302 39.1147 173.302 40.9618V46.1513C173.302 46.1952 173.345 46.1952 173.345 46.1952H175.482V40.8299C175.482 40.0383 176.136 39.3786 176.921 39.3786C177.706 39.3786 178.36 40.0383 178.36 40.8299V45.3596C178.36 45.8434 178.753 46.1952 179.189 46.1952H180.497V41.0058C180.497 39.1147 178.971 37.5755 177.096 37.5755Z" fill="#D2A95F"/>
<path d="M122.849 37.5755H122.413C120.538 37.5755 119.055 39.1147 119.055 40.9618V46.1513C119.055 46.1952 119.099 46.1952 119.099 46.1952H121.236V40.8299C121.236 40.0383 121.89 39.3786 122.675 39.3786C123.46 39.3786 124.114 40.0383 124.114 40.8299V45.3596C124.114 45.8434 124.506 46.1952 124.942 46.1952H126.25V41.0058C126.294 39.1147 124.724 37.5755 122.849 37.5755Z" fill="#D2A95F"/>
<path d="M110.465 37.4875C109.462 37.4875 108.59 37.8393 107.892 38.455C107.282 37.8393 106.41 37.4875 105.494 37.4875H105.407C103.313 37.4875 101.656 39.2027 101.656 41.2696V46.1512C101.656 46.1952 101.7 46.1952 101.7 46.1952H103.88V40.7419C103.88 39.9943 104.491 39.3786 105.232 39.3786C105.973 39.3786 106.584 39.9943 106.584 40.7419V46.1952H108.808V40.8299C108.808 40.0382 109.462 39.3786 110.247 39.3786C111.032 39.3786 111.686 40.0382 111.686 40.8299V45.4476C111.686 45.8874 112.035 46.2392 112.471 46.2392H113.779V40.9618C113.866 39.0267 112.34 37.4875 110.465 37.4875Z" fill="#D2A95F"/>
<path d="M134.23 35.2006H132.748V36.2561V36.9598V37.9713C132.225 37.7074 131.658 37.5315 131.047 37.5315C128.954 37.5315 127.21 39.2466 127.21 41.4016V42.633C127.21 44.7879 128.954 46.547 131.091 46.547H131.265C132.181 46.547 133.009 46.1952 133.62 45.6235C134.536 45.0078 135.059 43.9963 135.059 42.8529V36.9598V36.2561V35.9483C135.059 35.5085 134.667 35.2006 134.23 35.2006ZM131.222 44.568C130.262 44.568 129.521 43.7764 129.521 42.8529V42.589V42.457V41.1377C129.521 40.2581 130.219 39.5545 131.091 39.5545C131.963 39.5545 132.748 40.0822 132.748 41.4016V42.9408C132.748 44.0403 131.876 44.568 131.222 44.568Z" fill="#D2A95F"/>
<path d="M185.337 44.4361C184.378 44.4361 183.593 43.6445 183.593 42.7209V42.589H189V41.6654C189 41.2696 188.956 40.8738 188.913 40.522L188.869 40.3461C188.477 38.6749 186.951 37.4435 185.163 37.4435C183.026 37.4435 181.282 39.1587 181.282 41.3136V42.545C181.282 44.7 183.07 46.4591 185.25 46.4591H185.424C187.212 46.4591 188.651 45.1837 188.956 43.5125H186.863C186.602 44.0403 185.991 44.4361 185.337 44.4361ZM185.206 39.4226C185.817 39.4226 186.296 39.6424 186.558 40.2142C186.82 40.7859 186.732 41.1377 186.732 41.1377H183.593V41.0498C183.549 40.1262 184.291 39.4226 185.206 39.4226Z" fill="#D2A95F"/>
<path d="M152.283 37.3116C150.103 37.3116 148.315 39.1147 148.315 41.3136V42.545C148.315 44.7439 150.103 46.5471 152.283 46.5471C154.464 46.5471 156.252 44.7439 156.252 42.545V41.3136C156.252 39.1147 154.464 37.3116 152.283 37.3116ZM153.853 42.7649C153.853 43.6445 153.156 44.3481 152.283 44.3481C151.411 44.3481 150.714 43.6445 150.714 42.7649V41.0937C150.714 40.2142 151.411 39.5105 152.283 39.5105C153.156 39.5105 153.853 40.2142 153.853 41.0937V42.7649Z" fill="#D2A95F"/>
</svg>
